<svg xmlns="http://www.w3.org/2000/svg" xmlns:xlink="http://www.w3.org/1999/xlink" width="16" height="16" viewBox="0 0 16 16" version="1.1"><g id="surface1"><path style="fill:none;stroke-width:2;stroke-linecap:butt;stroke-linejoin:miter;stroke:#bf0000;stroke-opacity:1;stroke-miterlimit:4;" d="M 3 7.001952 C 3 5.115234 3 4.171875 3.585937 3.585937 C 4.171875 3 5.115234 3 7.001952 3 L 16.998045 3 C 18.884763 3 19.828123 3 20.41406 3.585937 C 20.999997 4.171875 20.999997 5.115234 20.999997 7.001952 L 20.999997 16.998045 C 20.999997 18.884763 20.999997 19.828123 20.41406 20.41406 C 19.828123 20.999997 18.884763 20.999997 16.998045 20.999997 L 7.001952 20.999997 C 5.115234 20.999997 4.171875 20.999997 3.585937 20.41406 C 3 19.828123 3 18.884763 3 16.998045 Z M 3 7.001952 " transform="matrix(0.666667,0,0,0.666667,0,0)"/><path style=" stroke:none;fill-rule:evenodd;fill:#bf0000;fill-opacity:1;" d="M 12 6.667969 L 8.4375 6.667969 C 7.890625 6.667969 7.621094 6.667969 7.375 6.566406 C 7.128906 6.464844 6.9375 6.269531 6.554688 5.886719 L 6.113281 5.445312 C 5.730469 5.0625 5.535156 4.871094 5.289062 4.769531 C 5.046875 4.667969 4.773438 4.667969 4.226562 4.667969 L 2 4.667969 L 2 11.332031 C 2 12.589844 2 13.21875 2.390625 13.609375 C 2.78125 14 3.410156 14 4.667969 14 L 11.332031 14 C 12.589844 14 13.21875 14 13.609375 13.609375 C 14 13.21875 14 12.589844 14 11.332031 L 14 4.667969 C 14 5.289062 14 5.597656 13.898438 5.84375 C 13.765625 6.171875 13.503906 6.429688 13.175781 6.566406 C 12.929688 6.667969 12.621094 6.667969 12 6.667969 Z M 4.667969 10 C 4.296875 10 4 10.296875 4 10.667969 C 4 11.035156 4.296875 11.332031 4.667969 11.332031 L 10 11.332031 C 10.367188 11.332031 10.667969 11.035156 10.667969 10.667969 C 10.667969 10.296875 10.367188 10 10 10 Z M 4.667969 10 "/></g></svg>
